<mxfile host="Electron" agent="Mozilla/5.0 (Windows NT 10.0; Win64; x64) AppleWebKit/537.36 (KHTML, like Gecko) draw.io/28.0.4 Chrome/138.0.7204.97 Electron/37.2.1 Safari/537.36" version="28.0.4" pages="3">
  <diagram name="Figure3-1" id="Z_WMqr-yyNCV0SBwzqO6">
    <mxGraphModel dx="1426" dy="962" grid="1" gridSize="10" guides="1" tooltips="1" connect="1" arrows="1" fold="1" page="1" pageScale="1" pageWidth="1169" pageHeight="1654" math="0" shadow="0">
      <root>
        <mxCell id="0" />
        <mxCell id="1" parent="0" />
        <mxCell id="wGyFNytbL7CrdochavTy-1" value="Diane" style="rhombus;whiteSpace=wrap;html=1;labelPosition=right;verticalLabelPosition=middle;align=left;verticalAlign=middle;fontSize=17;" parent="1" vertex="1">
          <mxGeometry x="210" y="200" width="50" height="60" as="geometry" />
        </mxCell>
        <mxCell id="wGyFNytbL7CrdochavTy-2" value="Italy" style="rhombus;whiteSpace=wrap;html=1;labelPosition=right;verticalLabelPosition=middle;align=left;verticalAlign=middle;fontSize=17;" parent="1" vertex="1">
          <mxGeometry x="340" y="200" width="50" height="60" as="geometry" />
        </mxCell>
        <mxCell id="wGyFNytbL7CrdochavTy-3" value="USA" style="rhombus;whiteSpace=wrap;html=1;labelPosition=right;verticalLabelPosition=middle;align=left;verticalAlign=middle;fontSize=17;" parent="1" vertex="1">
          <mxGeometry x="470" y="200" width="50" height="60" as="geometry" />
        </mxCell>
        <mxCell id="wGyFNytbL7CrdochavTy-4" value="Michael" style="rhombus;whiteSpace=wrap;html=1;labelPosition=right;verticalLabelPosition=middle;align=left;verticalAlign=middle;fontSize=17;" parent="1" vertex="1">
          <mxGeometry x="290" y="270" width="50" height="60" as="geometry" />
        </mxCell>
        <mxCell id="wGyFNytbL7CrdochavTy-5" value="TIM" style="rhombus;whiteSpace=wrap;html=1;labelPosition=right;verticalLabelPosition=middle;align=left;verticalAlign=middle;fontSize=17;" parent="1" vertex="1">
          <mxGeometry x="440" y="270" width="50" height="60" as="geometry" />
        </mxCell>
        <mxCell id="wGyFNytbL7CrdochavTy-6" value="Yasen" style="rhombus;whiteSpace=wrap;html=1;labelPosition=right;verticalLabelPosition=middle;align=left;verticalAlign=middle;fontSize=17;" parent="1" vertex="1">
          <mxGeometry x="560" y="270" width="50" height="60" as="geometry" />
        </mxCell>
        <mxCell id="wGyFNytbL7CrdochavTy-7" value="Jenna" style="rhombus;whiteSpace=wrap;html=1;labelPosition=right;verticalLabelPosition=middle;align=left;verticalAlign=middle;fontSize=17;" parent="1" vertex="1">
          <mxGeometry x="220" y="340" width="50" height="60" as="geometry" />
        </mxCell>
        <mxCell id="wGyFNytbL7CrdochavTy-8" value="India" style="rhombus;whiteSpace=wrap;html=1;labelPosition=right;verticalLabelPosition=middle;align=left;verticalAlign=middle;fontSize=17;" parent="1" vertex="1">
          <mxGeometry x="380" y="330" width="50" height="60" as="geometry" />
        </mxCell>
        <mxCell id="wGyFNytbL7CrdochavTy-9" value="China" style="rhombus;whiteSpace=wrap;html=1;labelPosition=right;verticalLabelPosition=middle;align=left;verticalAlign=middle;fontSize=17;" parent="1" vertex="1">
          <mxGeometry x="500" y="350" width="50" height="60" as="geometry" />
        </mxCell>
      </root>
    </mxGraphModel>
  </diagram>
  <diagram id="_g9UqTOQIGs8d8qd7WrK" name="Figure3-2">
    <mxGraphModel dx="1426" dy="962" grid="1" gridSize="10" guides="1" tooltips="1" connect="1" arrows="1" fold="1" page="1" pageScale="1" pageWidth="1169" pageHeight="1654" math="0" shadow="0">
      <root>
        <mxCell id="0" />
        <mxCell id="1" parent="0" />
        <mxCell id="S7hBfSyRWe4L4_M_T9Uh-1" value="Michael" style="rhombus;whiteSpace=wrap;html=1;labelPosition=right;verticalLabelPosition=middle;align=left;verticalAlign=middle;fontSize=17;" vertex="1" parent="1">
          <mxGeometry x="400" y="380" width="50" height="60" as="geometry" />
        </mxCell>
        <mxCell id="S7hBfSyRWe4L4_M_T9Uh-2" value="Biswanath" style="rhombus;whiteSpace=wrap;html=1;labelPosition=right;verticalLabelPosition=middle;align=left;verticalAlign=middle;fontSize=17;" vertex="1" parent="1">
          <mxGeometry x="80" y="290" width="50" height="60" as="geometry" />
        </mxCell>
        <mxCell id="S7hBfSyRWe4L4_M_T9Uh-3" value="India" style="rhombus;whiteSpace=wrap;html=1;labelPosition=right;verticalLabelPosition=middle;align=left;verticalAlign=middle;fontSize=17;" vertex="1" parent="1">
          <mxGeometry x="440" y="210" width="50" height="60" as="geometry" />
        </mxCell>
        <mxCell id="S7hBfSyRWe4L4_M_T9Uh-4" value="livesIn" style="endArrow=classic;html=1;rounded=0;exitX=1;exitY=0;exitDx=0;exitDy=0;entryX=0;entryY=0;entryDx=0;entryDy=0;edgeStyle=orthogonalEdgeStyle;curved=1;fontSize=19;" edge="1" parent="1" source="S7hBfSyRWe4L4_M_T9Uh-2" target="S7hBfSyRWe4L4_M_T9Uh-3">
          <mxGeometry width="50" height="50" relative="1" as="geometry">
            <mxPoint x="560" y="520" as="sourcePoint" />
            <mxPoint x="610" y="470" as="targetPoint" />
            <Array as="points">
              <mxPoint x="240" y="305" />
              <mxPoint x="240" y="225" />
            </Array>
          </mxGeometry>
        </mxCell>
        <mxCell id="S7hBfSyRWe4L4_M_T9Uh-5" value="hasFriend" style="endArrow=classic;html=1;rounded=0;exitX=1;exitY=1;exitDx=0;exitDy=0;entryX=0;entryY=1;entryDx=0;entryDy=0;edgeStyle=orthogonalEdgeStyle;curved=1;fontSize=19;" edge="1" parent="1" source="S7hBfSyRWe4L4_M_T9Uh-2" target="S7hBfSyRWe4L4_M_T9Uh-1">
          <mxGeometry x="-0.1446" y="-25" width="50" height="50" relative="1" as="geometry">
            <mxPoint x="160" y="400" as="sourcePoint" />
            <mxPoint x="495" y="320" as="targetPoint" />
            <Array as="points">
              <mxPoint x="118" y="400" />
              <mxPoint x="282" y="400" />
              <mxPoint x="282" y="440" />
              <mxPoint x="380" y="440" />
              <mxPoint x="380" y="425" />
            </Array>
            <mxPoint x="1" as="offset" />
          </mxGeometry>
        </mxCell>
      </root>
    </mxGraphModel>
  </diagram>
  <diagram name="Figure3-3" id="QMNQoIGx6rCi1VEl-OD7">
    <mxGraphModel dx="1426" dy="962" grid="1" gridSize="10" guides="1" tooltips="1" connect="1" arrows="1" fold="1" page="1" pageScale="1" pageWidth="1169" pageHeight="1654" math="0" shadow="0">
      <root>
        <mxCell id="px2wr4ADgHrtBwDPPY0O-0" />
        <mxCell id="px2wr4ADgHrtBwDPPY0O-1" parent="px2wr4ADgHrtBwDPPY0O-0" />
        <mxCell id="_pZEREwOXzvTSLatfaZi-2" value="&lt;font style=&quot;font-size: 21px;&quot;&gt;Country&lt;/font&gt;" style="ellipse;whiteSpace=wrap;html=1;verticalAlign=bottom;" vertex="1" parent="px2wr4ADgHrtBwDPPY0O-1">
          <mxGeometry x="630" y="90" width="380" height="230" as="geometry" />
        </mxCell>
        <mxCell id="_pZEREwOXzvTSLatfaZi-3" value="Dog" style="ellipse;whiteSpace=wrap;html=1;verticalAlign=bottom;fontSize=25;" vertex="1" parent="px2wr4ADgHrtBwDPPY0O-1">
          <mxGeometry x="380" y="350" width="380" height="230" as="geometry" />
        </mxCell>
        <mxCell id="_pZEREwOXzvTSLatfaZi-0" value="&lt;font style=&quot;font-size: 24px;&quot;&gt;Person&lt;/font&gt;" style="ellipse;whiteSpace=wrap;html=1;align=center;verticalAlign=bottom;" vertex="1" parent="px2wr4ADgHrtBwDPPY0O-1">
          <mxGeometry x="150" y="90" width="380" height="230" as="geometry" />
        </mxCell>
        <mxCell id="px2wr4ADgHrtBwDPPY0O-2" value="Oriana" style="rhombus;whiteSpace=wrap;html=1;labelPosition=right;verticalLabelPosition=middle;align=left;verticalAlign=middle;fontSize=17;" vertex="1" parent="px2wr4ADgHrtBwDPPY0O-1">
          <mxGeometry x="250" y="110" width="50" height="60" as="geometry" />
        </mxCell>
        <mxCell id="px2wr4ADgHrtBwDPPY0O-3" value="Italy" style="rhombus;whiteSpace=wrap;html=1;labelPosition=right;verticalLabelPosition=middle;align=left;verticalAlign=middle;fontSize=17;" vertex="1" parent="px2wr4ADgHrtBwDPPY0O-1">
          <mxGeometry x="810" y="100" width="50" height="60" as="geometry" />
        </mxCell>
        <mxCell id="px2wr4ADgHrtBwDPPY0O-4" value="USA" style="rhombus;whiteSpace=wrap;html=1;labelPosition=right;verticalLabelPosition=middle;align=left;verticalAlign=middle;fontSize=17;" vertex="1" parent="px2wr4ADgHrtBwDPPY0O-1">
          <mxGeometry x="710" y="200" width="50" height="60" as="geometry" />
        </mxCell>
        <mxCell id="px2wr4ADgHrtBwDPPY0O-5" value="Michael" style="rhombus;whiteSpace=wrap;html=1;labelPosition=left;verticalLabelPosition=middle;align=right;verticalAlign=middle;fontSize=17;" vertex="1" parent="px2wr4ADgHrtBwDPPY0O-1">
          <mxGeometry x="390" y="210" width="50" height="60" as="geometry" />
        </mxCell>
        <mxCell id="px2wr4ADgHrtBwDPPY0O-8" value="Buddy" style="rhombus;whiteSpace=wrap;html=1;labelPosition=right;verticalLabelPosition=middle;align=left;verticalAlign=middle;fontSize=17;" vertex="1" parent="px2wr4ADgHrtBwDPPY0O-1">
          <mxGeometry x="480" y="450" width="50" height="60" as="geometry" />
        </mxCell>
        <mxCell id="px2wr4ADgHrtBwDPPY0O-9" value="Rover" style="rhombus;whiteSpace=wrap;html=1;labelPosition=right;verticalLabelPosition=middle;align=left;verticalAlign=middle;fontSize=17;" vertex="1" parent="px2wr4ADgHrtBwDPPY0O-1">
          <mxGeometry x="605" y="410" width="50" height="60" as="geometry" />
        </mxCell>
        <mxCell id="px2wr4ADgHrtBwDPPY0O-10" value="China" style="rhombus;whiteSpace=wrap;html=1;labelPosition=right;verticalLabelPosition=middle;align=left;verticalAlign=middle;fontSize=17;" vertex="1" parent="px2wr4ADgHrtBwDPPY0O-1">
          <mxGeometry x="890" y="210" width="50" height="60" as="geometry" />
        </mxCell>
        <mxCell id="_pZEREwOXzvTSLatfaZi-1" value="&lt;font style=&quot;font-size: 15px;&quot;&gt;hasChild&lt;/font&gt;" style="curved=1;endArrow=classic;html=1;rounded=0;exitX=0.5;exitY=0;exitDx=0;exitDy=0;entryX=0.5;entryY=1;entryDx=0;entryDy=0;" edge="1" parent="px2wr4ADgHrtBwDPPY0O-1" source="px2wr4ADgHrtBwDPPY0O-5" target="px2wr4ADgHrtBwDPPY0O-2">
          <mxGeometry width="50" height="50" relative="1" as="geometry">
            <mxPoint x="580" y="190" as="sourcePoint" />
            <mxPoint x="630" y="140" as="targetPoint" />
            <Array as="points">
              <mxPoint x="320" y="180" />
            </Array>
          </mxGeometry>
        </mxCell>
        <mxCell id="_pZEREwOXzvTSLatfaZi-4" value="&lt;font style=&quot;font-size: 17px;&quot;&gt;hasPet&lt;/font&gt;" style="curved=1;endArrow=classic;html=1;rounded=0;exitX=0.5;exitY=1;exitDx=0;exitDy=0;entryX=0.5;entryY=0;entryDx=0;entryDy=0;" edge="1" parent="px2wr4ADgHrtBwDPPY0O-1" source="px2wr4ADgHrtBwDPPY0O-5" target="px2wr4ADgHrtBwDPPY0O-8">
          <mxGeometry width="50" height="50" relative="1" as="geometry">
            <mxPoint x="580" y="190" as="sourcePoint" />
            <mxPoint x="630" y="140" as="targetPoint" />
            <Array as="points">
              <mxPoint x="420" y="380" />
            </Array>
          </mxGeometry>
        </mxCell>
        <mxCell id="_pZEREwOXzvTSLatfaZi-5" value="&lt;font style=&quot;font-size: 16px;&quot;&gt;livesIn&lt;/font&gt;" style="endArrow=classic;html=1;rounded=0;entryX=0;entryY=0.5;entryDx=0;entryDy=0;exitX=1;exitY=0.5;exitDx=0;exitDy=0;" edge="1" parent="px2wr4ADgHrtBwDPPY0O-1" source="px2wr4ADgHrtBwDPPY0O-5" target="px2wr4ADgHrtBwDPPY0O-4">
          <mxGeometry width="50" height="50" relative="1" as="geometry">
            <mxPoint x="580" y="170" as="sourcePoint" />
            <mxPoint x="630" y="120" as="targetPoint" />
          </mxGeometry>
        </mxCell>
      </root>
    </mxGraphModel>
  </diagram>
</mxfile>
